<svg width="40" height="40" viewBox="0 0 40 40" fill="none" xmlns="http://www.w3.org/2000/svg">
<path d="M39.9983 20.1233C39.9983 9.00851 31.0446 0 19.9992 0C8.95371 0 0 9.00851 0 20.1233C0 30.1648 7.31364 38.4891 16.874 39.9983V25.9389H11.7972V20.1216H16.874V15.6894C16.874 10.6452 19.8608 7.85981 24.4277 7.85981C26.6161 7.85981 28.9045 8.25221 28.9045 8.25221V13.2042H26.3844C23.901 13.2042 23.126 14.7554 23.126 16.3468V20.1233H28.6729L27.7862 25.9406H23.126V40C32.6864 38.4908 40 30.1664 40 20.1233H39.9983Z" fill="#EF75BE"/>
</svg>
