<svg width="15" height="16" viewBox="0 0 15 16" fill="none" xmlns="http://www.w3.org/2000/svg">
<path d="M13.7395 5C13.9475 5 14.1176 4.83125 14.1176 4.625V3.375C14.1176 3.16875 13.9475 3 13.7395 3H13.1092V1.5C13.1092 0.671875 12.4317 0 11.5966 0H1.51261C0.677521 0 0 0.671875 0 1.5V14.5C0 15.3281 0.677521 16 1.51261 16H11.5966C12.4317 16 13.1092 15.3281 13.1092 14.5V13H13.7395C13.9475 13 14.1176 12.8313 14.1176 12.625V11.375C14.1176 11.1687 13.9475 11 13.7395 11H13.1092V9H13.7395C13.9475 9 14.1176 8.83125 14.1176 8.625V7.375C14.1176 7.16875 13.9475 7 13.7395 7H13.1092V5H13.7395ZM6.55462 4C7.66702 4 8.57143 4.89687 8.57143 6C8.57143 7.10313 7.66702 8 6.55462 8C5.44223 8 4.53782 7.10313 4.53782 6C4.53782 4.89687 5.44223 4 6.55462 4ZM10.084 11.4C10.084 11.7312 9.76891 12 9.37815 12H3.73109C3.34034 12 3.02521 11.7312 3.02521 11.4V10.8C3.02521 9.80625 3.97374 9 5.14286 9H5.30042C5.68803 9.15938 6.11029 9.25 6.55462 9.25C6.99895 9.25 7.42437 9.15938 7.80882 9H7.96639C9.1355 9 10.084 9.80625 10.084 10.8V11.4Z" fill="#C4C4C4"/>
</svg>
