<svg width="14" height="14" viewBox="0 0 14 14" fill="none" xmlns="http://www.w3.org/2000/svg">
<path d="M13.6138 3.88345L12.3533 5.14398C12.2247 5.27249 12.0169 5.27249 11.8884 5.14398L8.85326 2.10886C8.72474 1.98035 8.72474 1.77254 8.85326 1.64402L10.1138 0.383491C10.6251 -0.12783 11.4564 -0.12783 11.9704 0.383491L13.6138 2.02683C14.1279 2.53815 14.1279 3.36939 13.6138 3.88345ZM7.77045 2.72682L0.589977 9.9072L0.0102896 13.2294C-0.0690073 13.6779 0.322008 14.0661 0.770446 13.9896L4.09271 13.4072L11.2732 6.22678C11.4017 6.09826 11.4017 5.89045 11.2732 5.76194L8.23802 2.72682C8.10678 2.59831 7.89896 2.59831 7.77045 2.72682ZM3.39271 9.29197C3.24232 9.14158 3.24232 8.90096 3.39271 8.75057L7.60365 4.53969C7.75404 4.3893 7.99467 4.3893 8.14506 4.53969C8.29545 4.69008 8.29545 4.9307 8.14506 5.08109L3.93412 9.29197C3.78373 9.44236 3.5431 9.44236 3.39271 9.29197ZM2.4056 11.5916H3.7181V12.5841L1.95443 12.8931L1.10404 12.0427L1.41302 10.2791H2.4056V11.5916Z" fill="#C4C4C4"/>
</svg>
